<?xml version="1.0" encoding="UTF-8" standalone="no"?>
<svg width="48px" height="44px" viewBox="0 0 48 44" version="1.1" xmlns="http://www.w3.org/2000/svg" xmlns:xlink="http://www.w3.org/1999/xlink" xmlns:sketch="http://www.bohemiancoding.com/sketch/ns">
    <!-- Generator: Sketch 3.1.1 (8761) - http://www.bohemiancoding.com/sketch -->
    <title>Archives</title>
    <desc>Created with Sketch.</desc>
    <defs></defs>
    <g id="Page-1" stroke="none" stroke-width="1" fill="none" fill-rule="evenodd" sketch:type="MSPage">
        <g id="Icons" sketch:type="MSArtboardGroup" transform="translate(-72.000000, -454.000000)" stroke="#FFFFFF" stroke-width="2">
            <g id="Archives" sketch:type="MSLayerGroup" transform="translate(72.000000, 454.000000)">
                <path d="M8,16.9991283 L8,2.00174332 C8,0.889261723 8.89621101,0 10.0017433,0 L37.9982567,0 C39.1107383,0 40,0.89621101 40,2.00174332 L40,16.9991283 L40,4 L38,4 L38,3.99124431 C38,2.89151044 37.1001025,2 36.0087557,2 L11.9912443,2 C10.8915104,2 10,2.89989752 10,3.99124431 L10,4 L8,4 L8,16.9991283 Z" id="Rectangle-167" opacity="0.64" sketch:type="MSShapeGroup"></path>
                <path d="M4,22.9991283 L4,8.00174332 C4,6.88926172 4.89421792,6 5.99729162,6 L42.0027084,6 C43.1084602,6 44,6.89621101 44,8.00174332 L44,22.9991283 L44,10 L42,10 L42,9.99124431 C42,8.89151044 41.1101074,8 40.0002927,8 L7.99970728,8 C6.89529944,8 6,8.89989752 6,9.99124431 L6,10 L4,10 L4,22.9991283 Z" id="Rectangle-166" opacity="0.801277995" sketch:type="MSShapeGroup"></path>
                <rect id="Rectangle-164" sketch:type="MSShapeGroup" x="0" y="12" width="48" height="32" rx="2"></rect>
            </g>
        </g>
    </g>
</svg>