<?xml version="1.0" encoding="UTF-8" standalone="no"?>
<svg width="48px" height="48px" viewBox="0 0 48 48" version="1.1" xmlns="http://www.w3.org/2000/svg" xmlns:xlink="http://www.w3.org/1999/xlink" xmlns:sketch="http://www.bohemiancoding.com/sketch/ns">
    <!-- Generator: Sketch 3.1.1 (8761) - http://www.bohemiancoding.com/sketch -->
    <title>Calendar</title>
    <desc>Created with Sketch.</desc>
    <defs></defs>
    <g id="Page-1" stroke="none" stroke-width="1" fill="none" fill-rule="evenodd" sketch:type="MSPage">
        <g id="Icons" sketch:type="MSArtboardGroup" transform="translate(-840.000000, -355.000000)" stroke="#FFFFFF" stroke-width="2">
            <g id="Calendar" sketch:type="MSLayerGroup" transform="translate(840.000000, 355.000000)">
                <rect id="Rectangle-143" sketch:type="MSShapeGroup" x="0" y="4" width="48" height="44" rx="2"></rect>
                <rect id="Rectangle-156" fill="#FFFFFF" sketch:type="MSShapeGroup" x="2" y="10" width="44" height="2"></rect>
                <rect id="Rectangle-157" fill="#FFFFFF" sketch:type="MSShapeGroup" x="10" y="0" width="2" height="8" rx="1"></rect>
                <rect id="Rectangle-158" fill="#FFFFFF" sketch:type="MSShapeGroup" x="36" y="0" width="2" height="8" rx="1"></rect>
                <g id="Cells" transform="translate(6.000000, 16.000000)" fill="#FFFFFF" sketch:type="MSShapeGroup">
                    <rect id="Rectangle-145" x="10" y="0" width="6" height="6" rx="1"></rect>
                    <rect id="Rectangle-146" x="20" y="0" width="6" height="6" rx="1"></rect>
                    <rect id="Rectangle-147" x="30" y="0" width="6" height="6" rx="1"></rect>
                    <rect id="Rectangle-151" x="0" y="10" width="6" height="6" rx="1"></rect>
                    <rect id="Rectangle-148" x="10" y="10" width="6" height="6" rx="1"></rect>
                    <rect id="Rectangle-149" x="20" y="10" width="6" height="6" rx="1"></rect>
                    <rect id="Rectangle-150" x="30" y="10" width="6" height="6" rx="1"></rect>
                    <rect id="Rectangle-155" x="0" y="20" width="6" height="6" rx="1"></rect>
                    <rect id="Rectangle-152" x="10" y="20" width="6" height="6" rx="1"></rect>
                    <rect id="Rectangle-153" x="20" y="20" width="6" height="6" rx="1"></rect>
                </g>
            </g>
        </g>
    </g>
</svg>